<?xml version="1.0" encoding="UTF-8" standalone="no"?>
<!-- Created with Inkscape (http://www.inkscape.org/) -->

<svg
   width="210mm"
   height="210mm"
   viewBox="0 0 210 210"
   version="1.1"
   id="svg1"
   xml:space="preserve"
   inkscape:export-filename="icon-development-xr-challenges.svg"
   inkscape:export-xdpi="300"
   inkscape:export-ydpi="300"
   xmlns:inkscape="http://www.inkscape.org/namespaces/inkscape"
   xmlns:sodipodi="http://sodipodi.sourceforge.net/DTD/sodipodi-0.dtd"
   xmlns="http://www.w3.org/2000/svg"
   xmlns:svg="http://www.w3.org/2000/svg"><sodipodi:namedview
     id="namedview1"
     pagecolor="#ffffff"
     bordercolor="#666666"
     borderopacity="1.0"
     inkscape:showpageshadow="2"
     inkscape:pageopacity="0.0"
     inkscape:pagecheckerboard="0"
     inkscape:deskcolor="#d1d1d1"
     inkscape:document-units="mm"
     inkscape:zoom="0.0916465"
     inkscape:cx="-665.60098"
     inkscape:cy="305.52176"
     inkscape:window-width="1705"
     inkscape:window-height="1016"
     inkscape:window-x="-7"
     inkscape:window-y="0"
     inkscape:window-maximized="0"
     inkscape:current-layer="layer1"><inkscape:page
       x="0"
       y="0"
       width="210"
       height="210"
       id="page2"
       margin="0"
       bleed="0" /></sodipodi:namedview><defs
     id="defs1" /><g
     inkscape:label="Layer 1"
     inkscape:groupmode="layer"
     id="layer1"><g
       id="g71"
       transform="translate(-6.6989285,6.3910182)"
       style="fill:#1a1a1a"><path
         id="path66"
         style="baseline-shift:baseline;display:inline;overflow:visible;opacity:1;vector-effect:none;fill:#1a1a1a;stroke-linecap:round;stroke-linejoin:round;enable-background:accumulate;stop-color:#000000;stop-opacity:1"
         d="m 100.28535,27.990023 c -45.193068,0 -81.990343,36.797276 -81.990343,81.990347 0,45.19307 36.797275,81.99034 81.990343,81.99034 45.19306,0 81.98983,-36.79727 81.98983,-81.99034 0,-15.495631 -4.32567,-30.004217 -11.83287,-42.380879 h -3.82302 l -8.49251,8.492505 c 5.81746,9.932922 9.1488,21.510498 9.1488,33.888374 0,37.08646 -29.90377,66.99022 -66.99023,66.99022 -37.086467,0 -66.990225,-29.90376 -66.990225,-66.99022 0,-37.086469 29.903758,-66.990229 66.990225,-66.990229 12.65843,0 24.47984,3.484119 34.5612,9.548254 l 8.27856,-8.278564 -0.10387,-4.219898 c -12.45386,-7.640514 -27.09185,-12.04991 -42.73589,-12.04991 z" /><path
         id="circle67"
         style="baseline-shift:baseline;display:inline;overflow:visible;opacity:1;vector-effect:none;fill:#1a1a1a;stroke-linecap:round;stroke-linejoin:round;enable-background:accumulate;stop-color:#000000;stop-opacity:1"
         d="m 100.28535,70.029317 c -21.976081,0 -39.953115,17.97497 -39.953115,39.951053 0,21.97608 17.977034,39.95311 39.953115,39.95311 21.97608,0 39.95105,-17.97703 39.95105,-39.95311 0,-4.76967 -0.84667,-9.35087 -2.39727,-13.600723 L 125.21768,109.0011 c 0.0123,0.32488 0.0186,0.65115 0.0186,0.97927 0,13.86948 -11.08146,24.953 -24.95093,24.953 -13.869479,0 -24.953514,-11.08352 -24.953514,-24.953 0,-13.869482 11.084035,-24.950935 24.953514,-24.950935 0.6713,0 1.33586,0.02602 1.99316,0.077 l 12.38633,-12.386324 c -4.46698,-1.736916 -9.31706,-2.690792 -14.37949,-2.690792 z" /><path
         style="baseline-shift:baseline;display:inline;overflow:visible;vector-effect:none;fill:#1a1a1a;paint-order:stroke markers fill;enable-background:accumulate;stop-color:#000000"
         d="m 98.464345,112.33685 c 6.709785,6.70978 12.901265,-0.0902 12.901265,-0.0902 l 52.14642,-52.146421 17.8633,-10e-7 23.72752,-23.72752 -17.72798,-0.135325 8.79633,-8.796325 -12.81106,-12.811056 -8.79632,8.796325 -0.58643,-18.1790735 -23.72752,23.7275205 0.4511,18.314398 -52.146415,52.146418 c 0,0 -6.799994,6.19148 -0.09021,12.90126 z"
         id="path69" /></g></g></svg>
